<svg width="911" height="122" viewBox="0 0 911 122" fill="none" xmlns="http://www.w3.org/2000/svg">
<path d="M79.8125 25.3906H51.6875V120H28.6406V25.3906H0.984375V6.25H79.8125V25.3906ZM128.484 56.7969L121.141 56.1719C115.099 56.1719 111.01 58.8281 108.875 64.1406V120H86.6875V35.4688H107.547L108.172 44.6094C111.661 37.474 116.479 33.9062 122.625 33.9062C125.125 33.9062 127.156 34.2448 128.719 34.9219L128.484 56.7969ZM177.703 120C177.078 118.698 176.453 116.51 175.828 113.438C171.87 118.854 166.505 121.562 159.734 121.562C152.651 121.562 146.766 119.219 142.078 114.531C137.443 109.844 135.125 103.776 135.125 96.3281C135.125 87.474 137.938 80.625 143.562 75.7812C149.24 70.9375 157.391 68.4635 168.016 68.3594H174.734V61.5625C174.734 57.7604 174.083 55.0781 172.781 53.5156C171.479 51.9531 169.578 51.1719 167.078 51.1719C161.557 51.1719 158.797 54.401 158.797 60.8594H136.688C136.688 53.0469 139.604 46.6146 145.438 41.5625C151.323 36.4583 158.745 33.9062 167.703 33.9062C176.974 33.9062 184.135 36.3281 189.188 41.1719C194.292 45.9635 196.844 52.8385 196.844 61.7969V101.562C196.948 108.854 197.99 114.557 199.969 118.672V120H177.703ZM164.656 104.219C167.104 104.219 169.188 103.724 170.906 102.734C172.625 101.745 173.901 100.573 174.734 99.2188V81.6406H169.422C165.672 81.6406 162.703 82.8385 160.516 85.2344C158.38 87.6302 157.312 90.8333 157.312 94.8438C157.312 101.094 159.76 104.219 164.656 104.219ZM239.344 88.75L250.047 35.4688H273.094L249.891 120H228.797L205.516 35.4688H228.641L239.344 88.75ZM316.531 121.562C305.177 121.562 296.323 118.177 289.969 111.406C283.615 104.635 280.438 94.9479 280.438 82.3438V75.625C280.438 62.2917 283.354 52.0052 289.188 44.7656C295.021 37.526 303.38 33.9062 314.266 33.9062C324.891 33.9062 332.885 37.3177 338.25 44.1406C343.615 50.9115 346.349 60.9635 346.453 74.2969V85.1562H302.469C302.781 91.4062 304.161 95.9896 306.609 98.9062C309.057 101.771 312.833 103.203 317.938 103.203C325.333 103.203 331.505 100.677 336.453 95.625L345.125 108.984C342.417 112.734 338.484 115.781 333.328 118.125C328.172 120.417 322.573 121.562 316.531 121.562ZM302.625 69.6875H324.734V67.6562C324.63 62.6042 323.797 58.776 322.234 56.1719C320.672 53.5677 317.964 52.2656 314.109 52.2656C310.255 52.2656 307.443 53.6458 305.672 56.4062C303.953 59.1667 302.938 63.5938 302.625 69.6875ZM382.156 120H359.969V0H382.156V120ZM433.406 121.562C422.052 121.562 413.198 118.177 406.844 111.406C400.49 104.635 397.312 94.9479 397.312 82.3438V75.625C397.312 62.2917 400.229 52.0052 406.062 44.7656C411.896 37.526 420.255 33.9062 431.141 33.9062C441.766 33.9062 449.76 37.3177 455.125 44.1406C460.49 50.9115 463.224 60.9635 463.328 74.2969V85.1562H419.344C419.656 91.4062 421.036 95.9896 423.484 98.9062C425.932 101.771 429.708 103.203 434.812 103.203C442.208 103.203 448.38 100.677 453.328 95.625L462 108.984C459.292 112.734 455.359 115.781 450.203 118.125C445.047 120.417 439.448 121.562 433.406 121.562ZM419.5 69.6875H441.609V67.6562C441.505 62.6042 440.672 58.776 439.109 56.1719C437.547 53.5677 434.839 52.2656 430.984 52.2656C427.13 52.2656 424.318 53.6458 422.547 56.4062C420.828 59.1667 419.812 63.5938 419.5 69.6875ZM517.547 56.7969L510.203 56.1719C504.161 56.1719 500.073 58.8281 497.938 64.1406V120H475.75V35.4688H496.609L497.234 44.6094C500.724 37.474 505.542 33.9062 511.688 33.9062C514.188 33.9062 516.219 34.2448 517.781 34.9219L517.547 56.7969ZM566.922 120V6.25H597C610.281 6.25 620.854 10.4688 628.719 18.9062C636.635 27.3438 640.672 38.9062 640.828 53.5938V72.0312C640.828 86.9792 636.87 98.724 628.953 107.266C621.089 115.755 610.229 120 596.375 120H566.922ZM589.891 25.3906V100.938H596.766C604.422 100.938 609.812 98.9323 612.938 94.9219C616.062 90.8594 617.703 83.8802 617.859 73.9844V54.2188C617.859 43.5938 616.375 36.1979 613.406 32.0312C610.438 27.8125 605.385 25.599 598.25 25.3906H589.891ZM696.453 120C695.828 118.698 695.203 116.51 694.578 113.438C690.62 118.854 685.255 121.562 678.484 121.562C671.401 121.562 665.516 119.219 660.828 114.531C656.193 109.844 653.875 103.776 653.875 96.3281C653.875 87.474 656.688 80.625 662.312 75.7812C667.99 70.9375 676.141 68.4635 686.766 68.3594H693.484V61.5625C693.484 57.7604 692.833 55.0781 691.531 53.5156C690.229 51.9531 688.328 51.1719 685.828 51.1719C680.307 51.1719 677.547 54.401 677.547 60.8594H655.438C655.438 53.0469 658.354 46.6146 664.188 41.5625C670.073 36.4583 677.495 33.9062 686.453 33.9062C695.724 33.9062 702.885 36.3281 707.938 41.1719C713.042 45.9635 715.594 52.8385 715.594 61.7969V101.562C715.698 108.854 716.74 114.557 718.719 118.672V120H696.453ZM683.406 104.219C685.854 104.219 687.938 103.724 689.656 102.734C691.375 101.745 692.651 100.573 693.484 99.2188V81.6406H688.172C684.422 81.6406 681.453 82.8385 679.266 85.2344C677.13 87.6302 676.062 90.8333 676.062 94.8438C676.062 101.094 678.51 104.219 683.406 104.219ZM769.031 97.3438C769.031 95.4688 768.12 93.75 766.297 92.1875C764.526 90.5729 760.542 88.4115 754.344 85.7031C745.229 82.0052 738.953 78.1771 735.516 74.2188C732.13 70.2604 730.438 65.3385 730.438 59.4531C730.438 52.0573 733.094 45.9635 738.406 41.1719C743.771 36.3281 750.854 33.9062 759.656 33.9062C768.927 33.9062 776.349 36.3021 781.922 41.0938C787.495 45.8854 790.281 52.3177 790.281 60.3906H768.172C768.172 53.5156 765.307 50.0781 759.578 50.0781C757.234 50.0781 755.307 50.8073 753.797 52.2656C752.286 53.724 751.531 55.7552 751.531 58.3594C751.531 60.2344 752.365 61.901 754.031 63.3594C755.698 64.7656 759.63 66.7969 765.828 69.4531C774.839 72.7865 781.193 76.5104 784.891 80.625C788.641 84.6875 790.516 89.974 790.516 96.4844C790.516 104.036 787.677 110.104 782 114.688C776.323 119.271 768.875 121.562 759.656 121.562C753.458 121.562 747.99 120.365 743.25 117.969C738.51 115.521 734.786 112.135 732.078 107.812C729.422 103.49 728.094 98.8281 728.094 93.8281H749.109C749.214 97.6823 750.099 100.573 751.766 102.5C753.484 104.427 756.271 105.391 760.125 105.391C766.062 105.391 769.031 102.708 769.031 97.3438ZM825.828 42.8906C830.62 36.901 836.505 33.9062 843.484 33.9062C851.193 33.9062 857.052 36.6146 861.062 42.0312C865.073 47.4479 867.104 55.5208 867.156 66.25V120H844.969V66.4844C844.969 61.5365 844.188 57.9688 842.625 55.7812C841.115 53.5417 838.641 52.4219 835.203 52.4219C831.193 52.4219 828.068 54.2708 825.828 57.9688V120H803.719V0H825.828V42.8906ZM884.812 108.75C884.812 105.208 885.984 102.292 888.328 100C890.724 97.7083 893.823 96.5625 897.625 96.5625C901.323 96.5625 904.396 97.7083 906.844 100C909.292 102.24 910.516 105.156 910.516 108.75C910.516 112.396 909.266 115.339 906.766 117.578C904.318 119.766 901.271 120.859 897.625 120.859C893.927 120.859 890.854 119.74 888.406 117.5C886.01 115.26 884.812 112.344 884.812 108.75Z" fill="#3D3D4D"/>
</svg>
